<svg xmlns="http://www.w3.org/2000/svg" height="1024" preserveAspectRatio="none" style="display: block;" version="1.1" viewBox="0 0 2048 2048" width="1024">
<defs>
	<linearGradient gradientUnits="userSpaceOnUse" id="Gradient1" x1="1272.76" x2="1269.55" y1="1445.12" y2="1440.34">
		<stop class="stop0" offset="0" stop-color="rgb(11,117,79)" stop-opacity="1"></stop>
		<stop class="stop1" offset="1" stop-color="rgb(61,138,109)" stop-opacity="1"></stop>
	</linearGradient>
</defs>
<path d="M 829.216 513.852 C 855.525 502.481 878.101 491.799 906.406 486.192 C 921.535 483.195 937.083 475.104 953.491 474.972 C 988.463 472.086 1029.84 461.343 1064.54 470 L 1064.59 471.116 L 1061.98 473.56 L 1062.73 474.737 C 1076.19 476.84 1086.89 475.276 1100.24 475.464 C 1114.01 475.658 1122.43 478.918 1136.51 475.432 C 1172.91 490.964 1221.49 493.137 1259.6 508.482 C 1269.62 512.517 1277.1 521.511 1286.28 526.747 C 1293.15 530.664 1305.2 532.62 1309.77 539.546 C 1310.13 541.471 1310.4 542.833 1310.64 544.785 C 1314.75 547.234 1320.9 549.716 1323.75 551.628 C 1334.85 559.082 1346.29 568.963 1355.83 578.293 C 1361.83 584.554 1362.68 584.753 1364.94 592.754 C 1364.14 595.047 1363.7 595.415 1362.24 597.441 C 1366.25 602.627 1376.24 613.91 1374.58 620.659 C 1371.42 620.954 1372.03 620.736 1368.8 619.337 C 1368.45 623.756 1377.99 633.755 1381.23 638.022 C 1390.86 646.375 1394.49 647.688 1399.49 660.314 C 1399.77 661.011 1400.06 661.705 1400.35 662.395 C 1396.31 659.298 1393.53 657.304 1389.76 653.765 L 1388.86 655.265 C 1396.12 669.622 1403.72 682.942 1408.47 698.378 C 1402.5 699.157 1391.06 690.084 1386.11 687.036 C 1401.05 710.713 1422.63 719.363 1435.2 741.824 C 1430.49 738.422 1420.99 729.976 1417.39 728.27 C 1415.96 730.283 1416.55 729.213 1416.34 732.09 C 1407.69 730.974 1366.62 676.04 1342.91 670.612 C 1341.65 672.789 1341.6 672.681 1339.66 674.277 C 1324.4 658.307 1318.05 652.055 1298.99 641.387 C 1311.54 654.838 1325.28 660.232 1333.95 674.434 C 1334 674.467 1331.35 672.943 1331.42 673.006 C 1325.96 668.159 1314.37 667.76 1309.7 664.425 C 1294.82 653.802 1298.57 649.805 1280.33 643.544 C 1286.09 651.021 1309.08 667.139 1306.9 675.6 C 1301.02 675.855 1284.26 658.476 1274.26 653.662 C 1256.87 645.282 1239.55 637.089 1220.96 631.327 C 1210.79 628.173 1219.86 634.221 1208.97 630.198 C 1193.59 624.521 1185.14 618.182 1168.51 617.25 C 1175.43 621.832 1185.14 625.964 1192.82 629.531 C 1184.04 629.508 1178.2 629.069 1169.55 627.953 C 1174.55 631.645 1179.08 635.527 1183.84 639.522 C 1181.34 640.569 1180.38 640.829 1177.82 641.512 C 1171.15 639.89 1154.34 639.505 1150.12 637.529 C 1130.29 628.244 1034.32 603.332 1019.1 621.721 C 1020.25 632.697 1052.93 625.813 1056.67 631.35 L 1055.66 634.874 C 1062.85 641.583 1130.08 633.356 1149.53 657.166 L 1148.9 658.48 C 1131.74 660.008 1109.99 643.327 1094.16 654.511 L 1093.83 655.643 C 1103.98 661.784 1136.21 660.42 1147.86 665.571 C 1153.55 668.085 1156.37 674.193 1160.26 676.188 C 1175.1 683.803 1178.3 686.256 1188.32 699.334 C 1182.26 695.848 1164.08 684.52 1157.96 683.528 C 1126.75 678.48 1092.54 675.237 1061.5 671.86 C 1022.32 667.595 987.569 662.936 949.302 675.053 C 937.991 678.634 920.375 678.412 908.518 682.681 C 895.411 685.669 889.671 694.386 878.876 695.522 C 869.054 696.555 849.385 714.148 841.964 720.124 C 830.227 729.575 823.604 744.193 815.067 754.507 C 807.642 757.404 802.495 758.393 794.655 760.106 C 800.457 753.617 801.437 751.723 803.746 743.319 C 770.097 767.675 738.633 791.26 718.978 828.216 C 713.868 837.825 704.246 847.665 699.374 857.764 C 686.949 887.333 670.419 935.633 665.725 966.739 C 658.812 1012.56 661.152 1064.17 677.329 1107.8 C 680.672 1116.4 686.078 1124.41 689.637 1132.89 C 692.54 1139.81 694.797 1147.05 697.93 1153.86 C 718.908 1199.47 749.784 1238.47 786.024 1272.91 C 794.206 1280.68 800.442 1290.87 808.524 1298.8 C 814.296 1304.47 826.156 1311.67 833.309 1316.31 C 841.164 1321.41 849.369 1328.24 857.087 1332.91 C 867.357 1339.13 881.333 1344.61 892.387 1349.79 C 906.592 1356.45 922.414 1360.37 936.862 1366 C 945.179 1369.24 956.955 1375.37 965.067 1379.63 C 973.327 1381.27 976.535 1384.21 985.137 1385.39 C 999.897 1389.73 1006.44 1386.59 1015.67 1388.63 C 1015.93 1388.64 1016.19 1388.66 1016.45 1388.67 L 1017.74 1388.78 C 1028.65 1389.61 1044.4 1395.16 1053.15 1394.64 C 1069.58 1393.67 1091.49 1386.92 1108.39 1383.79 C 1117.91 1382.03 1121.91 1383.88 1130.32 1382.82 C 1134.75 1382.26 1145.76 1376.02 1151.86 1374.23 C 1157.68 1372.53 1170.95 1371.68 1175.21 1370.13 C 1200.7 1360.89 1226.39 1348.74 1249.44 1334.38 C 1256.63 1329.9 1261.43 1331.4 1265.05 1329.03 C 1292.96 1310.79 1313.82 1286.3 1337.2 1263.03 C 1340.12 1260.78 1344.77 1251.59 1347.16 1249.79 C 1368.01 1234.12 1373.39 1213.84 1387.11 1194 C 1383.3 1212.31 1358 1250.62 1346.1 1266.48 L 1347.4 1269.51 C 1351.54 1264.14 1355.37 1261.03 1360.43 1256.73 C 1355.77 1264.25 1352.93 1268.56 1346.94 1275.38 C 1339.68 1282.24 1330.96 1289.88 1324.47 1297.43 C 1321.59 1300.77 1320 1308.7 1316.35 1312.04 C 1314.1 1314.09 1313.98 1311.73 1312.9 1312.8 C 1300.78 1324.7 1283.54 1339.61 1272.56 1351.77 L 1273.38 1353.99 C 1285.92 1345.35 1300.05 1338.08 1311.6 1328.21 C 1327.69 1314.46 1354.4 1295.82 1364.17 1276.97 C 1384.32 1271.36 1375.96 1264.6 1386.21 1251.08 C 1389.58 1246.64 1395.1 1244.58 1398.27 1240.11 C 1409.54 1224.15 1456.55 1105.48 1453.78 1091.97 C 1453.25 1089.41 1452.78 1087.12 1453.02 1084.48 C 1453.75 1076.63 1456.52 1068.52 1457.79 1060.65 C 1460.32 1045.06 1462.15 1028.27 1463.36 1012.52 C 1464.46 998.237 1460.69 985.2 1458.38 971.264 C 1456.97 962.695 1456.21 954.008 1455.48 945.358 C 1471.12 969.877 1469.34 1031.79 1467.63 1061.15 C 1467.28 1067.24 1464.37 1082.39 1465.07 1086.03 C 1467.42 1085.17 1467.12 1084.39 1468.71 1081.49 C 1469.26 1082.54 1469.8 1083.6 1470.32 1084.67 C 1470.8 1088.01 1470.71 1089.64 1472.77 1092.33 L 1471.28 1096.49 C 1469.64 1106.48 1468.14 1115.62 1465.98 1125.48 C 1464.59 1131.82 1457.91 1150.53 1457.93 1154.96 C 1458.49 1160.27 1456.88 1170.25 1460.48 1173.08 C 1457.14 1178.8 1453.9 1187.7 1451.2 1193.94 C 1450.84 1197.45 1450.1 1198.49 1451.44 1201.09 L 1453.36 1199.45 L 1454.05 1200.02 C 1441.16 1248.39 1412.77 1277.43 1382.5 1315.83 C 1378.14 1321.36 1373.3 1331.72 1368.7 1334.1 C 1352.52 1342.47 1357.56 1336.55 1347.65 1350.27 C 1333.58 1369.72 1300.97 1391.76 1281.53 1407.25 C 1272.81 1407.7 1265.54 1414.86 1257.85 1419.6 C 1242.88 1428.83 1226.35 1434.98 1210.9 1443.04 L 1213.58 1444.47 C 1226.82 1439.49 1243.88 1430.71 1256.96 1424.4 L 1257.64 1427 C 1246.91 1433.1 1236.49 1439.73 1225.43 1445.14 C 1222.11 1446.76 1213.5 1449.37 1211.98 1451.35 C 1213.35 1454.29 1213.09 1454.54 1215.39 1456.67 C 1220.94 1454.42 1230.26 1447.31 1233.73 1446.34 C 1251.01 1441.53 1264.06 1435.71 1279.99 1427.59 C 1280.46 1429.34 1280.53 1429.36 1281.32 1431.12 C 1278.62 1435.81 1276.47 1434.36 1274.43 1437.6 C 1266.8 1440.58 1257.05 1444.2 1250.21 1448.42 C 1236.95 1456.6 1225.88 1465.65 1211.06 1471.34 C 1202.48 1474.63 1193.52 1476.09 1184.44 1477.6 C 1165.9 1480.68 1156.43 1483.06 1139.76 1491.4 L 1129.14 1490.18 C 1123.17 1489.43 1108.41 1490.7 1103.28 1493.96 L 1103.15 1495.54 L 1105.29 1497.75 C 1099.73 1500.89 1087.1 1497.8 1080.7 1498.18 C 1077.93 1498.35 1075.1 1502.58 1072.44 1502.8 C 1056.03 1504.14 1037.47 1502.2 1021.42 1505.68 C 1034.99 1510 1039.34 1509.43 1053.41 1508.77 C 1045.22 1512.21 1043.21 1512.84 1034.01 1512.08 C 1021.22 1511.03 1009.16 1512.07 996.576 1514.66 L 996.848 1516.14 C 1008.51 1519.8 1022.79 1510.58 1031.97 1520.75 L 1031.06 1521.65 C 1024.16 1522.66 1018.02 1521 1011.51 1521.2 C 979.527 1522.19 948.867 1515.51 917.409 1510.75 C 911.334 1509.83 904.08 1508.62 898.172 1506.75 C 839.199 1488.15 784.516 1457.64 734.668 1421.33 C 724.033 1413.59 719.524 1401.09 709.39 1392.8 C 704.956 1389.21 697.045 1385.28 691.791 1382.1 C 685.957 1378.57 680.976 1372.09 677.312 1369.2 C 665.85 1360.14 627.206 1298.22 617.601 1295.72 L 617.449 1297.77 L 618.819 1296.17 L 617.585 1298.4 C 620.73 1308.53 627.701 1316.9 633.942 1325.47 C 636.515 1328.64 639.902 1333.36 642.299 1336.79 C 651.927 1346.22 664.549 1361.9 668.805 1374.55 C 665.925 1372.03 663.085 1369.46 660.286 1366.85 L 659.355 1367.3 L 659.652 1369.35 C 670.325 1386.15 690.654 1402.42 709.049 1409.94 C 716.765 1413.09 721.496 1404.8 724.367 1420.84 C 732.115 1429.93 760.559 1445.15 771.34 1453.72 C 778.204 1459.18 783.487 1456.79 788.782 1465.6 C 793.493 1473.43 824.636 1480.8 824.799 1491.19 C 818.411 1492.59 801.067 1479.78 794.37 1475.51 L 793.408 1477.4 C 795.917 1479.64 799.142 1483.82 801.37 1486.51 C 790.653 1482.21 764.068 1466.35 754.656 1459.25 C 752.724 1458.41 751.525 1457.98 749.555 1457.33 C 744.798 1455.37 740.216 1455.13 736.724 1450.9 C 728.283 1443.28 714.712 1435.74 705.56 1427.39 C 699.349 1424.5 696.434 1411.79 692.704 1408.77 C 678.977 1397.66 669.379 1387.81 658.537 1373.96 C 639.861 1357.81 632.397 1342.54 618.572 1322.12 C 611.402 1311.53 604.566 1302.44 596.686 1292.36 C 597.936 1292.4 597.282 1292.32 598.893 1292.78 L 600.209 1293.18 C 596.815 1283.07 582.772 1265.02 578.854 1253.44 C 577.111 1248.29 564.707 1231.5 564.047 1226.76 C 562.699 1217.08 563.301 1207.64 559.169 1197.54 C 554.75 1184.58 551.402 1170.01 547.72 1156.68 C 545.585 1148.95 541.625 1140.17 540.044 1132.18 C 540.295 1125.01 541.078 1118.87 540.402 1111.57 C 536.315 1067.45 536.014 1023.9 542.11 979.979 C 542.626 976.264 541.876 967.996 539.384 965.077 C 538.26 966.136 530.088 998.726 529.581 1002.75 L 528.17 1002.88 C 527.216 996.8 525.668 990.742 524.264 984.743 C 523.838 982.25 523.652 978.577 523.307 975.76 C 522.88 969.47 522.651 962.08 523.907 955.893 L 524.394 951.003 L 521.896 949.748 C 520.254 954.57 518.319 959.827 517.008 964.709 C 515.845 971.889 514.003 980.954 511.616 987.828 C 506.71 1006.52 505.135 1034.15 507.221 1053.11 C 509.252 1054.53 509.945 1054.82 512.208 1055.89 C 514.584 1061.44 514.577 1078.49 515.435 1085.96 C 517.693 1092.36 517.106 1103.23 516.843 1110.19 L 516.692 1114.33 L 514.33 1114.98 C 509.448 1121.53 516.309 1144.05 516.084 1153.58 C 516.467 1155.7 518.345 1167.42 516.634 1168.58 L 516.621 1168.47 L 516.262 1168.86 C 514.843 1167.31 514.842 1166.92 514.25 1164.85 C 495.752 1120.12 494.962 1012.18 500.421 962.824 C 500.315 961.998 500.219 961.17 500.135 960.341 C 499.862 957.375 500.045 957.579 498.517 955.063 L 496.792 961.562 C 491.681 954.704 496.955 955.943 494.194 948.596 C 494.374 944.488 495.043 939.21 495.447 935.02 C 495.971 932.899 496.435 931.246 496.615 929.083 C 495.061 925.674 495.117 925.472 494.435 921.728 C 494.073 920.359 493.743 919.15 493.334 917.788 C 495.406 909.308 496.762 900.74 498.693 892.219 C 499.899 886.903 501.973 881.777 503.116 876.57 C 504.682 877.184 505.647 877.89 507.089 878.78 C 504.942 882.062 504.243 886.836 503.604 890.713 L 505.762 890.852 L 507.091 889.782 C 509.461 893.601 506.251 911.389 506.025 917.899 L 507.003 918.718 L 508.653 917.895 C 521.441 901.368 534.527 841.402 544.537 820.431 C 557.17 793.965 574.644 777.481 583.951 748.108 C 565.151 755.569 558.681 768.349 546.028 783.59 C 551.671 764.56 570.142 726.066 579.463 707.575 C 582.189 704.825 600.112 681.103 601.583 680.498 C 613.973 675.401 626.202 646.309 637.537 647.712 C 640.006 649.418 640.677 653.896 642.286 657.533 L 644.234 658.128 C 652.576 654.79 654.082 644.796 659.978 639.976 C 683.169 621.016 704.853 600.487 727.036 580.337 L 713.44 584.451 C 729.418 567.089 733.432 575.396 750.575 566.087 C 768.986 556.088 781.258 542.548 803.632 538.187 C 811.787 536.597 823.12 528.743 833.359 527.547 L 833.642 528.548 C 830.915 529.801 830.521 529.6 828.631 531.74 C 844.379 530.237 860.94 521.099 876.071 517.451 C 893.85 513.166 895.752 513.884 909.869 502.337 C 901.391 503.18 897.913 502.595 889.364 501.555 C 888.848 498.705 888.768 498.374 887.738 495.705 C 871.606 496.526 864.358 510.257 850.567 515.663 C 847.249 516.964 838.535 512.474 834.256 514.801 C 833.227 515.053 832.198 515.306 831.17 515.558 L 829.216 513.852 z" fill="rgb(10,115,78)" transform="translate(0,0)"></path>
<path d="M 1305.05 1354.64 C 1313.86 1341.88 1344.3 1319.68 1356.62 1306.62 C 1363.33 1301.22 1368.24 1292.44 1374.17 1286.61 C 1384.86 1276.07 1392.11 1266.84 1399.44 1253.77 C 1403.22 1247.04 1410.43 1239.64 1414.18 1232.68 C 1426.79 1209.3 1437.35 1185.87 1445.64 1160.61 C 1448.04 1153.31 1458.09 1140.08 1457.74 1132.96 C 1456.41 1130.81 1454.22 1127.83 1455.13 1125.58 C 1457.61 1119.48 1466.32 1099.19 1471.28 1096.49 C 1469.64 1106.48 1468.14 1115.62 1465.98 1125.48 C 1464.59 1131.82 1457.91 1150.53 1457.93 1154.96 C 1458.49 1160.27 1456.88 1170.25 1460.48 1173.08 C 1457.14 1178.8 1453.9 1187.7 1451.2 1193.94 C 1448.82 1190.57 1449.26 1189.25 1447.42 1186.02 C 1446.38 1189.29 1444.6 1196.98 1443.43 1199.4 C 1440.58 1205.26 1435.19 1211.9 1432.58 1218.11 C 1413.17 1264.17 1381.82 1300.89 1340.69 1329.13 C 1328.79 1337.31 1318.5 1346.41 1305.05 1354.64 z" fill="none" transform="translate(0,0)"></path>
<path d="M 1457.93 1154.96 C 1458.49 1160.27 1456.88 1170.25 1460.48 1173.08 C 1457.14 1178.8 1453.9 1187.7 1451.2 1193.94 C 1448.82 1190.57 1449.26 1189.25 1447.42 1186.02 C 1449.18 1180.73 1453.21 1179.21 1457.39 1175.49 C 1457.48 1168.71 1456.81 1161.44 1457.93 1154.96 z" fill="rgb(41,117,89)" transform="translate(0,0)"></path>
<path d="M 1171.37 1465.54 C 1183.09 1462.96 1198.25 1457.69 1208.27 1455.88 C 1192.68 1472.92 1154 1477.06 1131.76 1483.74 C 1126.44 1485.34 1114.5 1484.42 1108.57 1485.69 C 1082.51 1489.33 1054.13 1494.08 1027.97 1490.08 C 1016.35 1488.3 1005.62 1487.67 994.068 1487.1 L 994.045 1484.86 C 1010.82 1480.92 1027.28 1480.04 1043.85 1483.27 C 1046.72 1483.29 1056.42 1478.69 1058.5 1478.97 C 1072.39 1481.54 1082.67 1477.73 1095.72 1476.36 C 1120.85 1473.74 1140.71 1468.76 1164.63 1460.94 L 1165.91 1464.64 C 1167.27 1463.59 1167.54 1463.26 1169.05 1462.53 L 1171.37 1465.54 z" fill="none" transform="translate(0,0)"></path>
<path d="M 1169.05 1462.53 L 1171.37 1465.54 C 1169.69 1465.5 1166.99 1465.95 1165.91 1464.64 C 1167.27 1463.59 1167.54 1463.26 1169.05 1462.53 z" fill="rgb(54,130,93)" transform="translate(0,0)"></path>
<path d="M 507.431 1062.28 C 508.839 1069.04 509.766 1079.03 512.243 1085.13 L 512.846 1086.7 C 514.981 1092.36 514.909 1092.37 514.865 1098.29 C 512.52 1102.6 510.14 1106.74 507.658 1110.97 C 506.657 1096.89 501.588 1078.12 505.886 1066.48 L 507.431 1062.28 z" fill="none" transform="translate(0,0)"></path>
<path d="M 739.359 1448.67 C 739.884 1448.07 743.096 1443.76 743.994 1443.9 C 746.892 1444.35 760.144 1455.4 760.261 1457.44 C 759.27 1458.26 756.268 1458.13 755.043 1458.23 L 754.656 1459.25 C 752.724 1458.41 751.525 1457.98 749.555 1457.33 C 744.798 1455.37 740.216 1455.13 736.724 1450.9 C 737.602 1450.16 738.481 1449.41 739.359 1448.67 z" fill="none" transform="translate(0,0)"></path>
<path d="M 736.724 1450.9 C 737.602 1450.16 738.481 1449.41 739.359 1448.67 C 744.116 1451.34 747.505 1452.69 752.08 1456.12 L 749.555 1457.33 C 744.798 1455.37 740.216 1455.13 736.724 1450.9 z" fill="rgb(10,115,78)" transform="translate(0,0)"></path>
<path d="M 752.08 1456.12 L 755.043 1458.23 L 754.656 1459.25 C 752.724 1458.41 751.525 1457.98 749.555 1457.33 L 752.08 1456.12 z" fill="rgb(185,195,191)" transform="translate(0,0)"></path>
<path d="M 493.334 917.788 C 495.406 909.308 496.762 900.74 498.693 892.219 C 499.899 886.903 501.973 881.777 503.116 876.57 C 504.682 877.184 505.647 877.89 507.089 878.78 C 504.942 882.062 504.243 886.836 503.604 890.713 C 502.913 893.874 502.949 894.056 501.56 896.939 C 497.986 905.333 497.23 913.407 494.435 921.728 C 494.073 920.359 493.743 919.15 493.334 917.788 z" fill="rgb(10,115,78)" transform="translate(0,0)"></path>
<path d="M 965.067 1379.63 C 973.327 1381.27 976.535 1384.21 985.137 1385.39 C 982.214 1385.86 981.959 1385.75 979.348 1387.1 C 977.96 1388.57 977.922 1388.74 976.242 1389.7 L 975.036 1389.36 C 970.278 1387.96 958.08 1387.49 960.72 1381.8 C 962.218 1381.08 963.599 1380.42 965.067 1379.63 z" fill="none" transform="translate(0,0)"></path>
<path d="M 965.067 1379.63 C 973.327 1381.27 976.535 1384.21 985.137 1385.39 C 982.214 1385.86 981.959 1385.75 979.348 1387.1 C 972.052 1382.19 969.713 1382.03 960.72 1381.8 C 962.218 1381.08 963.599 1380.42 965.067 1379.63 z" fill="rgb(185,195,191)" transform="translate(0,0)"></path>
<path d="M 985.137 1385.39 C 999.897 1389.73 1006.44 1386.59 1015.67 1388.63 C 1014.55 1389.93 1014.69 1390.04 1014.12 1391.83 C 1005.46 1388.84 1001.42 1389.22 992.911 1392.32 C 986.189 1390.63 985.379 1390.72 979.348 1387.1 C 981.959 1385.75 982.214 1385.86 985.137 1385.39 z" fill="rgb(41,117,89)" transform="translate(0,0)"></path>
<path d="M 501.56 896.939 C 503.3 899.564 503.28 900.051 503.585 903.225 L 503.433 904.214 C 501.87 914.819 499.059 917.833 496.615 929.083 C 495.061 925.674 495.117 925.472 494.435 921.728 C 497.23 913.407 497.986 905.333 501.56 896.939 z" fill="none" transform="translate(0,0)"></path>
<path d="M 1164.63 1460.94 C 1179.71 1456.04 1196.21 1448.12 1210.9 1443.04 L 1213.58 1444.47 C 1196.43 1450.67 1185.23 1455.71 1169.05 1462.53 C 1167.54 1463.26 1167.27 1463.59 1165.91 1464.64 L 1164.63 1460.94 z" fill="rgb(198,224,216)" transform="translate(0,0)"></path>
<path d="M 992.911 1392.32 C 1001.42 1389.22 1005.46 1388.84 1014.12 1391.83 C 1015.79 1400.39 994.319 1394.05 991.34 1393.46 L 992.911 1392.32 z" fill="none" transform="translate(0,0)"></path>
<path d="M 1381.23 638.022 C 1390.86 646.375 1394.49 647.688 1399.49 660.314 C 1399.77 661.011 1400.06 661.705 1400.35 662.395 C 1396.31 659.298 1393.53 657.304 1389.76 653.765 C 1388.04 649.612 1386.6 647.264 1383.58 644.135 C 1382.67 642.769 1382.15 641.533 1381.77 639.944 L 1381.23 638.022 z" fill="rgb(41,117,89)" transform="translate(0,0)"></path>
<path d="M 525.567 966.744 C 526.648 961.918 527.221 957.915 527.769 952.992 C 527.902 951.801 527.612 946.322 529.21 946.552 C 532.12 951.015 525.402 978.565 524.264 984.743 C 523.838 982.25 523.652 978.577 523.307 975.76 C 525.083 972.474 524.769 970.432 525.567 966.744 z" fill="rgb(158,193,182)" transform="translate(0,0)"></path>
<path d="M 1355.83 578.293 C 1361.83 584.554 1362.68 584.753 1364.94 592.754 C 1361.03 592.165 1357.32 586.595 1353.28 583.428 C 1352.52 583.001 1352.42 583.152 1352.08 582.451 C 1353.5 580.634 1354.15 580.988 1355.83 578.293 z" fill="rgb(10,115,78)" transform="translate(0,0)"></path>
<path d="M 633.942 1325.47 C 636.515 1328.64 639.902 1333.36 642.299 1336.79 C 640.599 1338.09 639.672 1338.94 638.12 1340.38 C 636.569 1336.24 633.391 1331.23 629.594 1328.75 C 631.03 1327.64 632.48 1326.55 633.942 1325.47 z" fill="rgb(10,115,78)" transform="translate(0,0)"></path>
<path d="M 1347.4 1269.51 C 1351.54 1264.14 1355.37 1261.03 1360.43 1256.73 C 1355.77 1264.25 1352.93 1268.56 1346.94 1275.38 C 1345.29 1274.36 1344.54 1273.9 1342.79 1273.07 C 1345.19 1271.49 1345.36 1271.44 1347.4 1269.51 z" fill="rgb(41,117,89)" transform="translate(0,0)"></path>
<path d="M 515.435 1085.96 C 517.693 1092.36 517.106 1103.23 516.843 1110.19 C 516.064 1105.93 516.591 1102.03 514.865 1098.29 C 514.909 1092.37 514.981 1092.36 512.846 1086.7 L 515.435 1085.96 z" fill="rgb(87,138,117)" transform="translate(0,0)"></path>
<path d="M 979.348 1387.1 C 985.379 1390.72 986.189 1390.63 992.911 1392.32 L 991.34 1393.46 C 985.13 1392.63 982.269 1392.18 976.242 1389.7 C 977.922 1388.74 977.96 1388.57 979.348 1387.1 z" fill="none" transform="translate(0,0)"></path>
<path d="M 498.517 955.063 C 498.757 953.038 499.959 942.692 501.067 941.275 L 500.763 941.344 C 500.993 940.897 500.818 941.045 501.276 940.886 L 501.388 940.952 L 501.32 941.121 C 502.505 943.047 500.817 960.037 500.421 962.824 C 500.315 961.998 500.219 961.17 500.135 960.341 C 499.862 957.375 500.045 957.579 498.517 955.063 z" fill="rgb(158,193,182)" transform="translate(0,0)"></path>
<path d="M 1353.28 583.428 C 1357.32 586.595 1361.03 592.165 1364.94 592.754 C 1364.14 595.047 1363.7 595.415 1362.24 597.441 C 1359.55 593.87 1356.33 589.129 1354.24 585.185 L 1353.28 583.428 z" fill="none" transform="translate(0,0)"></path>
<path d="M 629.594 1328.75 C 633.391 1331.23 636.569 1336.24 638.12 1340.38 C 638.078 1340.65 638.036 1340.92 637.994 1341.19 L 637.853 1341.24 C 634.808 1339.95 630.55 1332.21 629.594 1328.75 z" fill="none" transform="translate(0,0)"></path>
<path d="M 887.738 495.705 L 888.661 495.672 C 891.33 495.558 895.46 493.982 895.587 496.917 C 894.106 499.022 891.611 500.459 889.364 501.555 C 888.848 498.705 888.768 498.374 887.738 495.705 z" fill="none" transform="translate(0,0)"></path>
<path d="M 516.084 1153.58 C 516.467 1155.7 518.345 1167.42 516.634 1168.58 L 516.621 1168.47 L 516.262 1168.86 C 514.843 1167.31 514.842 1166.92 514.25 1164.85 C 516.16 1161.35 515.602 1157.71 516.084 1153.58 z" fill="rgb(54,130,93)" transform="translate(0,0)"></path>
<path d="M 523.907 955.893 C 524.046 958.534 523.022 966.119 525.567 966.744 C 524.769 970.432 525.083 972.474 523.307 975.76 C 522.88 969.47 522.651 962.08 523.907 955.893 z" fill="rgb(126,160,146)" transform="translate(0,0)"></path>
<path d="M 503.604 890.713 L 505.762 890.852 C 503.905 896.335 504.418 897.549 503.585 903.225 C 503.28 900.051 503.3 899.564 501.56 896.939 C 502.949 894.056 502.913 893.874 503.604 890.713 z" fill="rgb(198,224,216)" transform="translate(0,0)"></path>
<path d="M 1383.58 644.135 C 1386.6 647.264 1388.04 649.612 1389.76 653.765 L 1388.86 655.265 C 1386.22 651.108 1385.33 648.631 1383.58 644.135 z" fill="rgb(126,160,146)" transform="translate(0,0)"></path>
<path d="M 994.068 1487.1 C 992.621 1486.97 987.811 1486.53 986.872 1485.46 C 988.081 1484.57 992.576 1484.86 994.045 1484.86 L 994.068 1487.1 z" fill="rgb(158,193,182)" transform="translate(0,0)"></path>
<path d="M 521.896 949.748 C 522.103 948.474 522.51 945.744 523.551 944.87 C 524.706 945.447 524.382 950.046 524.394 951.003 L 521.896 949.748 z" fill="rgb(198,224,216)" transform="translate(0,0)"></path>
<path d="M 1346.1 1266.48 L 1347.4 1269.51 C 1345.36 1271.44 1345.19 1271.49 1342.79 1273.07 C 1344.05 1269.82 1344.25 1269.51 1346.1 1266.48 z" fill="none" transform="translate(0,0)"></path>
<path d="M 1273.38 1353.99 C 1270.38 1356.89 1266.97 1357.06 1272.56 1351.77 L 1273.38 1353.99 z" fill="none" transform="translate(0,0)"></path>
<path d="M 793.408 1477.4 C 789.108 1472.55 789.154 1470.08 794.37 1475.51 L 793.408 1477.4 z" fill="none" transform="translate(0,0)"></path>
<path d="M 996.848 1516.14 C 996.525 1516.08 993.474 1515.87 993.816 1514.87 C 994.226 1514.5 994.773 1514.54 995.29 1514.58 L 996.576 1514.66 L 996.848 1516.14 z" fill="rgb(158,193,182)" transform="translate(0,0)"></path>
<path d="M 641.406 694.364 C 649.085 685.821 663.26 668.13 671.97 661.707 C 686.423 651.05 697.227 642.847 709.088 628.553 C 711.906 625.157 725.116 616.271 729.536 616.562 C 728.748 619.331 725.492 621.671 723.22 623.713 L 723.965 626.081 C 727.103 625.193 729.683 623.959 732.603 624.989 C 732.131 628.408 723.532 635.026 720.433 636.935 C 699.447 649.86 688.774 666.543 673.013 684.8 L 636.265 728.028 C 627.75 738.062 618.929 746.652 611.447 757.818 C 607.862 763.167 588.207 803.446 585.758 803.835 L 584.288 802.649 C 564.879 818.412 562.894 857.9 548.345 876.79 C 544.055 882.828 544.969 878.118 546.321 874.272 C 549.185 864.355 551.908 854.397 554.49 844.403 C 549.006 852.078 544.582 861.379 540.377 869.861 C 541.243 864.94 543.127 853.479 544.651 849.257 C 553.748 824.067 572.681 803.57 583.445 778.659 C 578.422 783.769 572.75 791.491 567.457 797.367 C 573.458 774.181 592.139 753.366 608.491 736.095 C 607.462 742.494 605.977 746.199 605.313 753.049 L 606.395 754.142 L 608.57 754.068 C 617.104 748.192 619.384 735.396 625.816 727.636 C 640.928 709.402 651.231 706.763 662.264 684.355 C 653.801 689.845 650.626 691.064 641.406 694.364 z" fill="none" transform="translate(0,0)"></path>
<path d="M 723.22 623.713 L 723.965 626.081 L 722.533 627.09 C 721.442 627.849 716.514 632.012 715.654 631.619 L 715.582 631.424 C 716.222 630.016 721.758 624.81 723.22 623.713 z" fill="rgb(54,130,93)" transform="translate(0,0)"></path>
<path d="M 546.321 874.272 C 547.023 875.588 547.213 875.634 548.345 876.79 C 544.055 882.828 544.969 878.118 546.321 874.272 z" fill="none" transform="translate(0,0)"></path>
<path d="M 600.997 759.882 C 602.073 763.114 599.163 765.481 597.222 768.216 C 596.713 764.292 598.58 763.012 600.997 759.882 z" fill="rgb(87,138,117)" transform="translate(0,0)"></path>
<path d="M 847.7 1369.42 C 794.4 1351.44 725.929 1285.95 696.096 1237.27 C 693.574 1233.16 691.589 1221.79 697.33 1219.4 C 718.315 1232.68 718.719 1239.73 734.751 1255.78 C 752.696 1273.76 764.655 1291.44 780.505 1310.76 C 787.946 1319.84 802.413 1331.21 811.25 1339.44 C 817.455 1345.22 831.974 1347.45 838.282 1354.15 C 841.012 1356.81 845.844 1363.15 848.687 1366.48 L 847.7 1369.42 z" fill="none" transform="translate(0,0)"></path>
<path d="M 979.414 1407.7 C 997.208 1402.35 1003.75 1408.33 1020.16 1407.69 C 1044.33 1406.26 1069.27 1409.47 1093.22 1406.41 C 1113.5 1403.82 1134.11 1398.71 1154.32 1395.62 C 1170.44 1393.15 1195.32 1378.79 1209.98 1379.02 L 1212.04 1380.16 C 1211.93 1382.38 1212.04 1382.38 1210.37 1383.69 C 1197.54 1393.81 1111.17 1419.03 1092.03 1420.85 C 1068.42 1423.1 1024.9 1421.59 1001.36 1417.55 C 994.006 1416.29 986.746 1414.46 979.38 1413.27 C 964.252 1410.83 950.29 1409.49 936.115 1402.98 L 938.272 1400.04 C 954.796 1407.38 951.251 1402.92 967.826 1399.3 C 973.688 1402.55 974.483 1403.14 979.414 1407.7 z" fill="none" transform="translate(0,0)"></path>
<path d="M 631.545 1051.18 L 633.751 1050.18 C 634.26 1052.34 634.369 1052.92 634.688 1055.1 C 639.778 1071.91 643.252 1093.33 647.447 1110.7 C 651.279 1126.57 668.382 1165.58 665.802 1179.87 L 664.565 1180.63 C 652.764 1171.72 636.748 1096.73 634.428 1080.33 C 633.664 1074.67 633.09 1068.99 632.708 1063.29 C 632.166 1059.13 631.969 1055.33 631.545 1051.18 z" fill="none" transform="translate(0,0)"></path>
<path d="M 631.545 1051.18 L 633.751 1050.18 C 634.26 1052.34 634.369 1052.92 634.688 1055.1 C 633.015 1058.47 633.32 1059.49 632.708 1063.29 C 632.166 1059.13 631.969 1055.33 631.545 1051.18 z" fill="none" transform="translate(0,0)"></path>
<path d="M 651.58 1064.06 C 652.364 1063.8 652.756 1063.62 653.585 1063.49 C 654.526 1067.5 655.353 1071.47 656.231 1075.49 L 658.228 1084.99 L 659.206 1089.99 C 659.497 1091.53 659.924 1093.44 660.249 1094.99 L 661.195 1099.49 L 662.256 1104.49 C 664.256 1114.18 666.698 1123.69 668.317 1133.44 C 656.064 1112.87 653.974 1087.78 651.58 1064.06 z" fill="none" transform="translate(0,0)"></path>
<path d="M 583.797 1221.75 L 584.841 1223.93 C 591.84 1238.25 598.031 1254.89 605.423 1269.19 L 604.215 1270.5 C 594.354 1265.18 586.433 1232.99 583.797 1221.75 z" fill="none" transform="translate(0,0)"></path>
<path d="M 651.58 1064.06 C 650.07 1058.36 650.942 1047.43 648.54 1041.01 C 647.449 1038.09 647.373 1014.48 649.01 1013.52 L 649.184 1013.58 C 649.345 1013.89 652.46 1057.72 653.585 1063.49 C 652.756 1063.62 652.364 1063.8 651.58 1064.06 z" fill="rgb(198,224,216)" transform="translate(0,0)"></path>
<path d="M 848.687 1366.48 C 855.027 1370.63 859.161 1372.57 866.605 1373.55 C 869.366 1373.91 871.896 1376.15 870.929 1377.7 C 869.157 1380.55 851.051 1370.6 847.7 1369.42 L 848.687 1366.48 z" fill="none" transform="translate(0,0)"></path>
<path d="M 603.475 1276.11 C 604.835 1275.09 606.169 1274.08 607.551 1273.08 C 609.781 1278.28 610.9 1282.17 612.511 1287.52 C 608.802 1283.49 605.946 1281.03 603.475 1276.11 z" fill="none" transform="translate(0,0)"></path>
<path d="M 514.572 966.216 C 514.318 968.243 509.248 984.965 508.415 986.801 C 507.586 980.257 509.805 971.02 514.572 966.216 z" fill="rgb(158,193,182)" transform="translate(0,0)"></path>
<path d="M 631.545 1051.18 C 630.267 1045.37 631.327 1042.71 633.751 1050.18 L 631.545 1051.18 z" fill="rgb(158,193,182)" transform="translate(0,0)"></path>
<path d="M 605.423 1269.19 L 607.551 1273.08 C 606.169 1274.08 604.835 1275.09 603.475 1276.11 C 603.76 1274.22 604.077 1272.42 604.215 1270.5 L 605.423 1269.19 z" fill="rgb(41,117,89)" transform="translate(0,0)"></path>
<path d="M 936.115 1402.98 C 929.343 1399.77 934.125 1399.94 938.272 1400.04 L 936.115 1402.98 z" fill="none" transform="translate(0,0)"></path>
<path d="M 670.327 1138.83 C 670.963 1138.54 671.056 1138.37 671.571 1138.49 C 671.889 1138.82 671.708 1138.59 672.111 1139.27 C 670.982 1139.69 670.9 1139.96 670.327 1138.83 z" fill="rgb(198,224,216)" transform="translate(0,0)"></path>
<path d="M 632.051 1375.01 C 650.509 1397.87 670.472 1417.11 694.516 1434.17 C 701.649 1439.23 708.638 1447.29 716.01 1452.07 C 755.094 1477.45 798.956 1506.96 841.472 1525.92 C 876.019 1541.33 920.047 1547.17 957.049 1555.1 C 961.716 1555.98 980.721 1555.58 987.69 1556.04 C 999.839 1556.85 1017.24 1560.63 1028.17 1560.6 C 1059.23 1560.5 1088.83 1553.02 1119.27 1561.38 C 1109.76 1562.03 1101.22 1560.86 1093.49 1561.34 C 1085.54 1561.84 1071.55 1565.91 1062.83 1567.14 C 1054.37 1568.32 1029.93 1567.83 1024.18 1570.85 C 1031.57 1572.11 1067.75 1573.99 1070.33 1575.03 C 1062.56 1577.27 1051.14 1578.07 1042.95 1577.94 L 1042.73 1580.76 C 1039.71 1583.46 1019.37 1581.59 1013.63 1581.82 C 1009.7 1582.08 988.814 1582.95 986.175 1581.42 C 984.126 1581.26 982.076 1581.12 980.024 1580.99 C 965.556 1580.96 945.514 1579.02 931.674 1575.68 C 929.63 1575.36 917.965 1573.96 916.752 1573.34 C 915.883 1571.96 924.423 1573.28 928.586 1570.39 C 891.719 1562.11 853.495 1554.49 819.075 1538.34 C 800.027 1529.41 770.889 1521.1 756.018 1506.52 C 750.765 1504.58 745.723 1502.11 740.968 1499.15 C 741.404 1497.7 741.635 1497.66 741.054 1496.58 C 741.975 1497.16 742.89 1497.76 743.799 1498.36 L 745.739 1496.71 C 724.186 1476.41 701.172 1462.58 681.177 1440.09 C 663.095 1419.76 641.536 1402.73 629.805 1377.12 L 632.051 1375.01 z" fill="rgb(10,115,78)" transform="translate(0,0)"></path>
<path d="M 1012.72 1578.13 L 1013.95 1578.04 C 1028.07 1576.99 1027.87 1576.58 1042.95 1577.94 L 1042.73 1580.76 C 1039.71 1583.46 1019.37 1581.59 1013.63 1581.82 C 1010.88 1580.96 1008.74 1580.65 1006.2 1579.3 C 1008.94 1578.58 1010.01 1577.7 1012.72 1578.13 z" fill="none" transform="translate(0,0)"></path>
<path d="M 1006.2 1579.3 C 1008.94 1578.58 1010.01 1577.7 1012.72 1578.13 C 1012.6 1578.21 1010.96 1579.53 1010.86 1579.64 C 1015.39 1580.87 1034.45 1578.89 1042.73 1580.76 C 1039.71 1583.46 1019.37 1581.59 1013.63 1581.82 C 1010.88 1580.96 1008.74 1580.65 1006.2 1579.3 z" fill="rgb(10,115,78)" transform="translate(0,0)"></path>
<path d="M 980.027 1578.37 C 979.749 1577.57 979.782 1577.82 979.782 1577.47 C 981.183 1575.37 1002.3 1578.12 1005.82 1579.19 L 1006.2 1579.3 C 1008.74 1580.65 1010.88 1580.96 1013.63 1581.82 C 1009.7 1582.08 988.814 1582.95 986.175 1581.42 C 984.126 1581.26 982.076 1581.12 980.024 1580.99 L 980.027 1578.37 z" fill="rgb(185,195,191)" transform="translate(0,0)"></path>
<path d="M 980.027 1578.37 L 981.878 1578.99 C 983.052 1579.39 986.457 1579.69 987.144 1580.46 C 986.821 1580.78 986.498 1581.1 986.175 1581.42 C 984.126 1581.26 982.076 1581.12 980.024 1580.99 L 980.027 1578.37 z" fill="rgb(54,102,89)" transform="translate(0,0)"></path>
<path d="M 928.586 1570.39 C 928.745 1570.4 942.088 1571.08 938.415 1573.14 C 935.977 1574.5 935.829 1572.45 931.674 1575.68 C 929.63 1575.36 917.965 1573.96 916.752 1573.34 C 915.883 1571.96 924.423 1573.28 928.586 1570.39 z" fill="rgb(158,193,182)" transform="translate(0,0)"></path>
<path d="M 741.054 1496.58 C 741.975 1497.16 742.89 1497.76 743.799 1498.36 L 745.739 1496.71 C 748.33 1498.38 750.59 1501.03 752.83 1503.25 C 754.419 1504.44 754.718 1504.96 756.018 1506.52 C 750.765 1504.58 745.723 1502.11 740.968 1499.15 C 741.404 1497.7 741.635 1497.66 741.054 1496.58 z" fill="rgb(126,160,146)" transform="translate(0,0)"></path>
<path d="M 745.739 1496.71 C 748.33 1498.38 750.59 1501.03 752.83 1503.25 L 751.399 1502.66 C 749.704 1501.97 748.819 1501.7 747.265 1500.67 L 743.799 1498.36 L 745.739 1496.71 z" fill="none" transform="translate(0,0)"></path>
<path d="M 985.877 1566.96 C 986.917 1566.95 1012.76 1569 1002.14 1570.9 C 999.936 1570.93 982.036 1571.86 981.862 1569.2 C 982.448 1568.01 984.794 1567.39 985.877 1566.96 z" fill="none" transform="translate(0,0)"></path>
<path d="M 1469.52 1310.89 C 1479.59 1290.28 1488.3 1268.35 1498.05 1247.57 C 1508.22 1225.89 1519.42 1205.29 1523.66 1181.45 C 1524.79 1175.1 1527.37 1152.84 1531.15 1149.48 C 1531.91 1155.66 1521.31 1201.2 1519.01 1208.29 L 1520.9 1209.87 C 1520.22 1216.3 1519.74 1219.65 1520.53 1226.16 C 1518.44 1227.18 1519.41 1227.11 1517.72 1226.9 C 1517.28 1227.61 1516.86 1228.32 1516.45 1229.03 C 1509.59 1253.86 1502.9 1266.95 1492.4 1290.34 L 1494.2 1290.97 C 1501.67 1273.5 1511.54 1259.82 1522.93 1244.73 C 1519.11 1255.62 1500.46 1293.08 1493.18 1301.62 C 1492.89 1300.84 1492.59 1300.05 1492.3 1299.27 C 1489.92 1302.27 1483.91 1309.45 1482.47 1312.44 L 1482.7 1314.22 C 1483.6 1321.23 1477.21 1327.49 1472.68 1332.75 C 1461 1342.09 1457.69 1356.52 1449.01 1366.78 C 1443.61 1373.15 1429.69 1392.31 1423.82 1396.45 C 1409.26 1406.72 1396.76 1422.31 1383.45 1432.4 C 1387.6 1426.6 1395.51 1416.19 1398.55 1410.25 L 1397.88 1410.38 L 1395.92 1407.89 C 1400.08 1403.38 1408.58 1392.9 1414.25 1392.05 C 1414.99 1393.07 1415.45 1393.73 1416.1 1394.82 L 1416.61 1395.68 C 1419.93 1394.51 1441.55 1370.02 1443.8 1366.11 C 1443.06 1365.76 1442.31 1365.41 1441.57 1365.07 C 1440.11 1365.39 1438.65 1365.69 1437.19 1365.97 L 1434.11 1364.64 L 1434.43 1364.19 C 1436.41 1361.51 1438.08 1356.8 1441.38 1356.94 L 1442.81 1356.97 C 1444.61 1357.1 1444.48 1357.03 1446.08 1356 C 1447.04 1353.33 1449.71 1348.07 1449.75 1345.66 L 1449.81 1344.28 C 1450.2 1343.28 1450.27 1342.9 1450.6 1341.77 C 1450.93 1341.22 1451.25 1340.68 1451.58 1340.14 C 1455.3 1336.54 1455.97 1335.18 1458.47 1330.44 C 1461.77 1323.77 1465.44 1320.94 1469.46 1314.88 C 1467.94 1313.03 1468.52 1314.08 1467.75 1311.7 L 1469.52 1310.89 z" fill="rgb(10,115,78)" transform="translate(0,0)"></path>
<path d="M 1469.52 1310.89 C 1479.59 1290.28 1488.3 1268.35 1498.05 1247.57 C 1508.22 1225.89 1519.42 1205.29 1523.66 1181.45 C 1524.79 1175.1 1527.37 1152.84 1531.15 1149.48 C 1531.91 1155.66 1521.31 1201.2 1519.01 1208.29 L 1520.9 1209.87 C 1520.22 1216.3 1519.74 1219.65 1520.53 1226.16 C 1518.44 1227.18 1519.41 1227.11 1517.72 1226.9 C 1517.28 1227.61 1516.86 1228.32 1516.45 1229.03 C 1515.74 1227.75 1515.05 1226.46 1514.35 1225.16 C 1506.58 1244.8 1481.84 1300.95 1469.46 1314.88 C 1467.94 1313.03 1468.52 1314.08 1467.75 1311.7 L 1469.52 1310.89 z" fill="rgb(41,117,89)" transform="translate(0,0)"></path>
<path d="M 1519.01 1208.29 L 1520.9 1209.87 C 1520.22 1216.3 1519.74 1219.65 1520.53 1226.16 C 1518.44 1227.18 1519.41 1227.11 1517.72 1226.9 C 1517.28 1227.61 1516.86 1228.32 1516.45 1229.03 C 1515.74 1227.75 1515.05 1226.46 1514.35 1225.16 C 1506.58 1244.8 1481.84 1300.95 1469.46 1314.88 C 1467.94 1313.03 1468.52 1314.08 1467.75 1311.7 L 1469.52 1310.89 C 1478.12 1303.05 1512.03 1223.65 1519.01 1208.29 z" fill="none" transform="translate(0,0)"></path>
<path d="M 1514.35 1225.16 C 1514.74 1223.71 1515.28 1220.85 1516.55 1219.94 C 1517.46 1220.25 1517.61 1225.9 1517.72 1226.9 C 1517.28 1227.61 1516.86 1228.32 1516.45 1229.03 C 1515.74 1227.75 1515.05 1226.46 1514.35 1225.16 z" fill="rgb(41,117,89)" transform="translate(0,0)"></path>
<path d="M 1454.69 1344.18 C 1458.14 1339.84 1459.06 1338.54 1463.23 1334.92 C 1458.09 1343.31 1449.43 1359.77 1443.8 1366.11 C 1443.06 1365.76 1442.31 1365.41 1441.57 1365.07 C 1440.11 1365.39 1438.65 1365.69 1437.19 1365.97 L 1434.11 1364.64 L 1434.43 1364.19 C 1436.41 1361.51 1438.08 1356.8 1441.38 1356.94 L 1442.81 1356.97 C 1444.61 1357.1 1444.48 1357.03 1446.08 1356 C 1447.04 1353.33 1449.71 1348.07 1449.75 1345.66 L 1449.81 1344.28 C 1450.2 1343.28 1450.27 1342.9 1450.6 1341.77 L 1454.69 1344.18 z" fill="none" transform="translate(0,0)"></path>
<path d="M 1434.11 1364.64 L 1434.43 1364.19 C 1436.41 1361.51 1438.08 1356.8 1441.38 1356.94 L 1442.81 1356.97 C 1443.99 1361.35 1444.37 1361.42 1441.57 1365.07 C 1440.11 1365.39 1438.65 1365.69 1437.19 1365.97 L 1434.11 1364.64 z" fill="rgb(10,115,78)" transform="translate(0,0)"></path>
<path d="M 1450.6 1341.77 L 1454.69 1344.18 C 1452.03 1348.9 1450.2 1352.56 1446.08 1356 C 1447.04 1353.33 1449.71 1348.07 1449.75 1345.66 L 1449.81 1344.28 C 1450.2 1343.28 1450.27 1342.9 1450.6 1341.77 z" fill="rgb(54,130,93)" transform="translate(0,0)"></path>
<path d="M 1482.7 1314.22 C 1483.6 1321.23 1477.21 1327.49 1472.68 1332.75 C 1470.58 1331.45 1469.47 1331.85 1469.52 1329.64 C 1474.56 1328.26 1478.42 1319.25 1482.7 1314.22 z" fill="rgb(54,130,93)" transform="translate(0,0)"></path>
<path d="M 1482.47 1312.44 L 1482.7 1314.22 C 1478.42 1319.25 1474.56 1328.26 1469.52 1329.64 C 1473.61 1321.08 1475.66 1318.64 1482.47 1312.44 z" fill="none" transform="translate(0,0)"></path>
<path d="M 1492.4 1290.34 L 1494.2 1290.97 C 1493.77 1291.75 1491.63 1296.43 1490.53 1296.26 C 1489.83 1295.21 1491.99 1291.23 1492.4 1290.34 z" fill="rgb(158,193,182)" transform="translate(0,0)"></path>
<path d="M 850.856 1501.21 C 866.658 1504.77 911.834 1522.22 919.339 1522.56 C 919.354 1519.48 918.167 1518.96 916.054 1515.84 C 925.102 1516.94 932.988 1517.96 941.831 1520.29 C 943.126 1520.59 946.782 1521.04 947.213 1522.41 C 946.337 1523.38 938.189 1522.84 936.713 1522.83 L 933.929 1524.97 L 933.852 1526.56 C 942.93 1531.26 1010.55 1535.3 1023.22 1534.6 C 1024.83 1535.3 1024.72 1535.26 1025.92 1536.65 L 1027.37 1538.39 L 1026.24 1540.92 C 1024.2 1541.16 1022.41 1541.52 1020.39 1541.89 C 1006.15 1541.77 991.903 1541.44 977.665 1540.9 C 968.2 1540.13 960.127 1539.39 950.869 1537.23 C 944.11 1535.29 931.189 1528.52 925.523 1529.46 L 925.705 1531.73 L 924.243 1532.52 C 904.777 1531.3 884.336 1525.61 866.286 1518.49 C 872.068 1518.27 877.726 1518.69 883.504 1519 C 872.716 1514.04 859.262 1506.28 848.194 1503.07 L 850.856 1501.21 z" fill="rgb(10,115,78)" transform="translate(0,0)"></path>
<path d="M 951.782 1535.97 C 956.475 1534.24 972.704 1535.7 977.285 1537.02 C 977.274 1538.94 977.313 1539.03 977.665 1540.9 C 968.2 1540.13 960.127 1539.39 950.869 1537.23 L 951.782 1535.97 z" fill="rgb(198,224,216)" transform="translate(0,0)"></path>
<path d="M 951.782 1535.97 C 957.716 1538.86 970.999 1538.77 977.285 1537.02 C 977.274 1538.94 977.313 1539.03 977.665 1540.9 C 968.2 1540.13 960.127 1539.39 950.869 1537.23 L 951.782 1535.97 z" fill="rgb(10,115,78)" transform="translate(0,0)"></path>
<path d="M 941.831 1520.29 C 943.126 1520.59 946.782 1521.04 947.213 1522.41 C 946.337 1523.38 938.189 1522.84 936.713 1522.83 C 938.897 1522.2 941.3 1522.45 941.831 1520.29 z" fill="rgb(87,138,117)" transform="translate(0,0)"></path>
<path d="M 1478.58 1053.08 C 1481.08 1041.17 1484.75 1030.72 1480.07 1019.43 C 1479.65 1018.43 1481.97 1014.4 1482.54 1013.39 C 1484.47 1017.44 1488.06 1024.73 1488.26 1029.24 C 1489.55 1058.27 1484.55 1102.11 1476.68 1129.88 C 1474.84 1136.37 1462.3 1169.72 1460.48 1173.08 C 1456.88 1170.25 1458.49 1160.27 1457.93 1154.96 C 1457.91 1150.53 1464.59 1131.82 1465.98 1125.48 C 1468.14 1115.62 1469.64 1106.48 1471.28 1096.49 L 1472.77 1092.33 C 1477.68 1079.75 1474.96 1070.3 1478.55 1057.81 C 1479.54 1055.85 1479.13 1055.35 1478.58 1053.08 z" fill="rgb(10,115,78)" transform="translate(0,0)"></path>
<path d="M 1520.9 1209.87 C 1524.73 1195.09 1532.51 1178.76 1536.92 1163.91 C 1538.84 1157.45 1537.86 1150.15 1539.52 1144.12 C 1541.61 1136.53 1545.5 1129.32 1546.97 1121.34 C 1547.95 1116.05 1545.31 1109.73 1545.95 1105.98 C 1549.91 1082.8 1549.61 1059.79 1554.14 1036.57 C 1555.41 1030.03 1554.34 1024.91 1556.82 1017.44 L 1558.31 1017.28 C 1564.54 1024.52 1556.61 1055.03 1556.03 1065.46 C 1554.56 1092.21 1553.68 1129.05 1545.31 1154.23 C 1537.36 1178.12 1531.2 1204.03 1520.53 1226.16 C 1519.74 1219.65 1520.22 1216.3 1520.9 1209.87 z" fill="rgb(10,115,78)" transform="translate(0,0)"></path>
<path d="M 1160.19 1520.43 C 1162.71 1520.49 1162.99 1520.83 1165.16 1522.27 C 1140.16 1538.12 1095.12 1542.07 1066.03 1541.99 C 1062.48 1541.33 1060.95 1541 1057.52 1539.93 L 1078.03 1535.91 C 1072.28 1534.28 1066.5 1532.73 1060.71 1531.24 L 1065.12 1528.97 C 1097.4 1528.81 1128.22 1524.21 1160.19 1520.43 z" fill="rgb(10,115,78)" transform="translate(0,0)"></path>
<path d="M 529.319 1221.76 C 537.917 1233.29 539.738 1244.17 545.841 1255.74 C 555.401 1273.86 563.44 1282.59 568.355 1303.62 C 570.855 1305.59 570.275 1305.63 567.968 1307.36 C 569.245 1309.89 572.393 1316.45 570.732 1319.06 C 569.091 1319.68 557.679 1302.65 556.335 1300.38 C 550.223 1290.63 547.61 1278.69 542.843 1268.54 C 539.015 1260.4 538.034 1259.6 535.966 1250.89 C 538.68 1251.45 538.402 1251.47 540.821 1250.05 C 534.971 1237.38 533.528 1235.12 529.319 1221.76 z" fill="rgb(10,115,78)" transform="translate(0,0)"></path>
<path d="M 529.319 1221.76 C 537.917 1233.29 539.738 1244.17 545.841 1255.74 C 555.401 1273.86 563.44 1282.59 568.355 1303.62 C 559.491 1293.18 562.009 1289.11 556.694 1280.21 C 550.492 1269.81 546.28 1260.48 540.821 1250.05 C 534.971 1237.38 533.528 1235.12 529.319 1221.76 z" fill="rgb(41,117,89)" transform="translate(0,0)"></path>
<path d="M 540.821 1250.05 C 546.28 1260.48 550.492 1269.81 556.694 1280.21 C 562.009 1289.11 559.491 1293.18 568.355 1303.62 C 570.855 1305.59 570.275 1305.63 567.968 1307.36 C 552.031 1289.97 548.677 1264.94 535.966 1250.89 C 538.68 1251.45 538.402 1251.47 540.821 1250.05 z" fill="none" transform="translate(0,0)"></path>
<path d="M 663.491 1443.65 C 678.873 1454.47 694.648 1466.58 710.007 1477.1 C 719.867 1483.85 730.558 1489.47 741.054 1496.58 C 741.635 1497.66 741.404 1497.7 740.968 1499.15 C 737.483 1501.5 743.423 1505.97 740.429 1504.48 C 720.236 1494.4 703.874 1484.01 687.1 1468.85 C 677.429 1460.1 671.612 1454.44 662.602 1445.12 L 663.491 1443.65 z" fill="rgb(10,115,78)" transform="translate(0,0)"></path>
<path d="M 1531.1 1072.59 C 1536.37 1083.07 1530.79 1116.64 1528.16 1128.37 C 1523.59 1148.71 1522.15 1180.99 1506.08 1195.56 L 1505.71 1195.32 C 1505.53 1190.66 1514.96 1174.91 1516.6 1164.58 C 1519.81 1144.78 1525.04 1125.21 1528.84 1105.57 C 1530.83 1095.28 1529.35 1083.41 1531.1 1072.59 z" fill="rgb(10,115,78)" transform="translate(0,0)"></path>
<path d="M 1315.57 1412.63 C 1326.5 1406.79 1347.15 1394.45 1355.83 1385.81 C 1370.87 1370.83 1378.93 1357.35 1397.64 1345.29 C 1390.42 1354.89 1383.24 1361.42 1374.72 1369.73 C 1370.64 1373.7 1366.46 1381.47 1362.11 1384.54 C 1357.16 1388.02 1353.02 1390.11 1348.11 1394.21 C 1340.01 1400.51 1333.82 1410.74 1325.01 1415.82 C 1324.61 1416.05 1322.87 1414.12 1322.89 1414.14 C 1321.36 1412.12 1318.33 1413.54 1316.25 1413.97 L 1315.57 1412.63 z" fill="rgb(41,117,89)" transform="translate(0,0)"></path>
<path d="M 1449.81 856.696 C 1454.92 865.294 1469.9 887.648 1465.19 897.14 C 1465.06 902.971 1464.96 908.803 1464.9 914.636 C 1463.34 912.193 1461.99 909.647 1460.53 907.142 C 1457.98 897.171 1457.74 887.854 1455.39 877.698 C 1455.34 877.655 1455.28 877.612 1455.22 877.568 C 1454.78 877.222 1454.35 876.877 1453.91 876.531 C 1452.02 875.331 1450.6 874.602 1449.32 872.75 C 1446.75 869.054 1447.98 865.007 1448.95 860.999 C 1449.2 859.969 1449.56 857.896 1449.81 856.696 z" fill="rgb(10,115,78)" transform="translate(0,0)"></path>
<path d="M 523 1046.07 L 525.211 1044.42 C 524.029 1069.5 528.78 1094.94 530.365 1120.09 C 516.713 1093.92 522.875 1074.04 523 1046.07 z" fill="rgb(10,115,78)" transform="translate(0,0)"></path>
<path d="M 1488.69 1244.83 C 1488.85 1244.99 1489.9 1245.86 1489.61 1246.39 C 1479.02 1265.56 1468.84 1285.2 1457.63 1304.06 C 1455.61 1307.46 1453.03 1310.08 1450.07 1312.62 C 1449.67 1312.36 1449.39 1312.28 1449.28 1311.9 C 1449.33 1311.65 1456.59 1299.4 1457.34 1298.2 C 1466.71 1283.25 1475.11 1255.64 1488.69 1244.83 z" fill="rgb(41,117,89)" transform="translate(0,0)"></path>
<path d="M 1298.65 1424.52 L 1299.42 1426.33 L 1298.7 1426.92 C 1287.98 1435.95 1282.35 1440.79 1270.45 1448.91 C 1259.24 1456.56 1256.4 1455.04 1244.54 1460.47 L 1243.93 1458.96 C 1251 1455.59 1270.97 1443.92 1274.43 1437.6 C 1276.47 1434.36 1278.62 1435.81 1281.32 1431.12 L 1281.81 1431.25 C 1285.38 1434.6 1295.05 1426.93 1298.65 1424.52 z" fill="url(#Gradient1)" transform="translate(0,0)"></path>
<path d="M 606.773 1381.61 C 627.042 1400.61 641.472 1421.59 660.304 1440.64 L 658.964 1441.64 L 658.241 1440.95 C 649.336 1432.55 641.02 1427.24 633.238 1417.03 C 622.991 1403.58 615.61 1396.55 606.773 1381.61 z" fill="rgb(41,117,89)" transform="translate(0,0)"></path>
<path d="M 1468.19 920.505 C 1479.61 937.372 1481.33 968.992 1483.44 989.082 L 1480.18 990.196 C 1475.9 970.986 1473.85 948.51 1469.85 928.51 L 1468.19 920.505 z" fill="rgb(10,115,78)" transform="translate(0,0)"></path>
<path d="M 526.053 830.335 C 519.667 844.309 512.621 860.471 511.051 876.04 C 510.72 879.318 509.858 879.152 507.089 878.78 C 505.647 877.89 504.682 877.184 503.116 876.57 C 509.409 859.413 510.066 846.209 523.438 832.973 L 526.053 830.335 z" fill="rgb(10,115,78)" transform="translate(0,0)"></path>
<path d="M 1214.1 642.233 C 1228.76 642.034 1251.21 653.981 1263.48 661.909 C 1256.33 660.959 1219.22 646.621 1214.1 642.233 z" fill="rgb(41,117,89)" transform="translate(0,0)"></path>
<path d="M 1300.88 1466.1 L 1302.08 1467.99 C 1284.55 1480.37 1278.84 1485.82 1257.87 1490.58 L 1260.51 1488.6 C 1273.59 1478.63 1288.73 1474.27 1300.88 1466.1 z" fill="rgb(41,117,89)" transform="translate(0,0)"></path>
<path d="M 1437.45 888.731 C 1447.41 895.758 1454.2 927.14 1456.6 939.502 C 1452.89 936.322 1449.77 929.105 1449.03 924.494 C 1446.8 910.535 1444.11 901.073 1437.45 888.731 z" fill="rgb(41,117,89)" transform="translate(0,0)"></path>
<path d="M 1437.26 1354.82 C 1438.74 1351.42 1451.89 1324.53 1456.41 1328.07 L 1458.47 1330.44 C 1455.97 1335.18 1455.3 1336.54 1451.58 1340.14 C 1451.25 1340.68 1450.93 1341.22 1450.6 1341.77 C 1450.27 1342.9 1450.2 1343.28 1449.81 1344.28 C 1444.74 1348.57 1442.24 1349.66 1437.26 1354.82 z" fill="rgb(10,115,78)" transform="translate(0,0)"></path>
<path d="M 1451.58 1340.14 C 1453.15 1335.83 1455.02 1331.98 1456.41 1328.07 L 1458.47 1330.44 C 1455.97 1335.18 1455.3 1336.54 1451.58 1340.14 z" fill="none" transform="translate(0,0)"></path>
<path d="M 490.468 1039.93 C 496.837 1046.32 495.379 1080.04 494.896 1089.44 C 494.434 1089.46 493.972 1089.47 493.51 1089.49 C 492.578 1073.52 490.513 1055.95 490.468 1039.93 z" fill="rgb(41,117,89)" transform="translate(0,0)"></path>
<path d="M 1283.44 1468.81 C 1284.05 1468.92 1284.56 1468.94 1285.05 1469.25 C 1285.37 1470.31 1278.27 1474.4 1277.35 1475.14 C 1268.15 1482.53 1263.21 1482.96 1252.53 1485.21 L 1246.38 1486.57 C 1246.08 1486.81 1245.78 1487.05 1245.48 1487.29 C 1244.34 1485.5 1251.72 1483.43 1252.53 1483.07 C 1262.75 1478.53 1273.38 1473.67 1283.44 1468.81 z" fill="rgb(54,130,93)" transform="translate(0,0)"></path>
<path d="M 1380.94 709.942 C 1382.14 710.512 1382.34 710.561 1383.36 711.301 L 1384.95 712.471 C 1394.47 719.486 1409.02 729.879 1415.12 739.98 C 1403.69 735.574 1390.07 719.427 1380.94 709.942 z" fill="rgb(10,115,78)" transform="translate(0,0)"></path>
<path d="M 1533.42 1011.74 C 1535.14 1023.32 1536.1 1042.16 1535.83 1053.97 C 1531.74 1043.46 1530.21 1022.41 1533.42 1011.74 z" fill="rgb(87,138,117)" transform="translate(0,0)"></path>
<path d="M 1401.63 1166.76 C 1401.75 1176.57 1397.64 1186.22 1388.78 1190.96 L 1388.66 1190.54 C 1387.45 1186.63 1398.7 1171.41 1401.63 1166.76 z" fill="rgb(41,117,89)" transform="translate(0,0)"></path>
<path d="M 710.098 587.789 C 710.499 588.032 710.899 588.276 711.3 588.519 C 710.313 592.015 691.774 604.951 687.83 607.721 C 681.901 605.186 707.496 589.354 710.098 587.789 z" fill="rgb(41,117,89)" transform="translate(0,0)"></path>
<path d="M 1433.74 1301.07 C 1432.88 1306.58 1411.28 1331.82 1405.94 1335.43 C 1405.54 1333.13 1430.38 1304.07 1433.74 1301.07 z" fill="rgb(87,138,117)" transform="translate(0,0)"></path>
<path d="M 1027.37 1538.39 C 1029.66 1538.63 1031.7 1538.92 1033.98 1539.25 C 1037.06 1538.96 1053.37 1539.75 1057.52 1539.93 C 1060.95 1541 1062.48 1541.33 1066.03 1541.99 C 1057.84 1542.4 1050.59 1541.7 1042.5 1541.51 C 1034.39 1541.33 1028.69 1542.39 1020.39 1541.89 C 1022.41 1541.52 1024.2 1541.16 1026.24 1540.92 L 1027.37 1538.39 z" fill="rgb(185,195,191)" transform="translate(0,0)"></path>
<path d="M 1027.37 1538.39 C 1029.66 1538.63 1031.7 1538.92 1033.98 1539.25 C 1033.08 1542.13 1028.98 1541.02 1026.24 1540.92 L 1027.37 1538.39 z" fill="rgb(41,117,89)" transform="translate(0,0)"></path>
<path d="M 527.377 1119.65 C 528.913 1124.02 528.605 1129.51 529.398 1134.41 C 530.341 1140.23 533.937 1142.45 532.692 1147.25 C 530.348 1145.54 525.977 1142.88 526.225 1139.55 C 526.789 1132 524.761 1127.48 527.377 1119.65 z" fill="rgb(10,115,78)" transform="translate(0,0)"></path>
<path d="M 1417.66 1121.78 C 1418.23 1125.7 1412.97 1133.82 1411.26 1138.02 C 1407.98 1146.11 1406.94 1153.82 1402.58 1161.3 C 1401.09 1154.63 1413.05 1127.97 1417.66 1121.78 z" fill="rgb(41,117,89)" transform="translate(0,0)"></path>
<path d="M 1219.59 1543.1 C 1220 1543.16 1220.52 1543.16 1220.86 1543.39 C 1220.49 1546.56 1197.14 1553.87 1193.23 1554.95 C 1182.79 1554.02 1219.19 1543.25 1219.59 1543.1 z" fill="rgb(41,117,89)" transform="translate(0,0)"></path>
<path d="M 494.194 948.596 C 496.955 955.943 491.681 954.704 496.792 961.562 C 496.814 963.102 493.103 988.52 493.047 988.565 C 490.641 987.654 493.97 952.985 494.194 948.596 z" fill="rgb(54,102,89)" transform="translate(0,0)"></path>
<path d="M 1279.99 1427.59 C 1298.3 1418.21 1294.91 1417.02 1307.98 1408.64 L 1308.31 1410.3 C 1299.5 1417.78 1290.19 1424.08 1281.81 1431.25 L 1281.32 1431.12 C 1280.53 1429.36 1280.46 1429.34 1279.99 1427.59 z" fill="rgb(54,130,93)" transform="translate(0,0)"></path>
<path d="M 1409.92 821.487 C 1416.44 824.621 1420.07 837.737 1421.13 844.245 C 1415.46 839.653 1411.5 828.592 1409.92 821.487 z" fill="rgb(10,115,78)" transform="translate(0,0)"></path>
<path d="M 514.33 1114.98 L 516.692 1114.33 C 518.454 1123.41 519.706 1132.85 521.285 1141.98 C 521.441 1142.88 524.131 1152.42 522.503 1152.55 C 519.229 1149.96 517.183 1121.12 514.33 1114.98 z" fill="rgb(126,160,146)" transform="translate(0,0)"></path>
<path d="M 1547.45 1162.9 C 1548.18 1163.31 1547.96 1163.12 1548.24 1163.45 C 1549.08 1167.43 1541.57 1186.81 1541.44 1195.07 C 1536.3 1194.78 1544.71 1170.95 1545.34 1169.03 C 1545.99 1166.97 1546.7 1164.93 1547.45 1162.9 z" fill="rgb(87,138,117)" transform="translate(0,0)"></path>
<path d="M 513.725 1202.69 C 517.867 1207.82 523.794 1224.89 525.223 1231.22 C 518.818 1223.94 515.063 1212.18 513.725 1202.69 z" fill="rgb(54,130,93)" transform="translate(0,0)"></path>
<path d="M 1281.24 670.853 L 1281.91 670.921 C 1291.16 671.793 1301.47 679.099 1308.15 685.279 C 1299.57 683.322 1292.24 677.105 1284.48 672.682 L 1281.24 670.853 z" fill="rgb(41,117,89)" transform="translate(0,0)"></path>
<path d="M 1438.9 1330.12 C 1439.4 1330.46 1439.25 1330.3 1439.44 1330.57 C 1439.38 1329.38 1423.51 1353.44 1422.39 1355.31 C 1417.51 1350.67 1435.33 1333.42 1438.9 1330.12 z" fill="rgb(87,138,117)" transform="translate(0,0)"></path>
<path d="M 826.456 1500.52 C 836.142 1504.21 845.126 1507.06 854.845 1511.11 C 840.613 1509.96 838.651 1508.47 825.823 1502.22 L 826.456 1500.52 z" fill="rgb(10,115,78)" transform="translate(0,0)"></path>
<path d="M 1158.22 1543.5 C 1163.25 1543.12 1167.71 1542.96 1172.73 1542.79 C 1167.93 1544.56 1163.01 1546.45 1158.21 1548.15 C 1156.27 1548.86 1153.61 1549.93 1151.44 1549.39 C 1150.69 1549.2 1150.49 1548.36 1150.92 1547.71 C 1152.6 1545.19 1155.37 1544.19 1158.22 1543.5 z" fill="rgb(41,117,89)" transform="translate(0,0)"></path>
<path d="M 1287.03 1514.41 L 1288.6 1516.51 C 1282.36 1518.13 1271.5 1523.95 1262.33 1526.66 C 1272.68 1519.87 1274.91 1517.58 1287.03 1514.41 z" fill="rgb(41,117,89)" transform="translate(0,0)"></path>
<path d="M 1346.37 1466.84 C 1346.79 1467.09 1347.57 1467.44 1347.71 1467.88 C 1344.45 1472.23 1332.44 1481.96 1328.06 1485.43 C 1327.87 1485.32 1327.69 1485.22 1327.51 1485.12 C 1327.02 1483.14 1343.31 1468.83 1346.37 1466.84 z" fill="rgb(87,138,117)" transform="translate(0,0)"></path>
<path d="M 1395.92 1407.89 L 1397.88 1410.38 C 1391.41 1415.11 1387.21 1420.42 1380.66 1419.67 C 1380.45 1419.65 1394.36 1409.27 1395.92 1407.89 z" fill="rgb(54,130,93)" transform="translate(0,0)"></path>
<path d="M 1111.74 1574.47 L 1112.28 1574.46 C 1112.38 1574.42 1112.48 1574.39 1112.58 1574.35 L 1113.16 1574.89 L 1113.04 1574.36 C 1113.91 1574.45 1113.62 1574.39 1114.03 1574.52 L 1114.04 1574.55 C 1111.11 1575.95 1105.71 1577.5 1102.49 1578.04 L 1093.5 1579.62 C 1078.74 1576.08 1108.78 1574.84 1111.74 1574.47 z" fill="rgb(87,138,117)" transform="translate(0,0)"></path>
<path d="M 629.805 1377.12 C 627.606 1373.76 616.033 1360.58 615.954 1359.66 C 618.338 1359 630.182 1372.71 632.051 1375.01 L 629.805 1377.12 z" fill="rgb(41,117,89)" transform="translate(0,0)"></path>
<path d="M 661.83 623.985 C 664.475 626.794 651.202 637.53 648.872 639.716 C 645.548 637.366 659.706 625.78 661.83 623.985 z" fill="rgb(54,130,93)" transform="translate(0,0)"></path>
<path d="M 1339.66 674.277 C 1341.6 672.681 1341.65 672.789 1342.91 670.612 L 1343.42 671.295 C 1347.64 676.879 1349.22 679.537 1353.07 685.507 C 1349.06 682.222 1343.01 677.73 1339.66 674.277 z" fill="rgb(41,117,89)" transform="translate(0,0)"></path>
<path d="M 1240.87 1493.04 L 1241.18 1493.01 C 1250.54 1492.04 1233.79 1499.03 1233.49 1499.13 L 1229.34 1500.61 C 1228.77 1500.7 1228.2 1500.86 1227.68 1500.63 C 1226.69 1498.27 1238.86 1493.7 1240.87 1493.04 z" fill="rgb(54,130,93)" transform="translate(0,0)"></path>
<path d="M 523 1046.07 C 523.006 1043.66 523.791 1026.83 524.863 1025.71 C 525.233 1025.67 525.079 1025.64 525.34 1025.75 L 525.222 1025.98 C 526.802 1028.95 525.939 1041.05 525.211 1044.42 L 523 1046.07 z" fill="rgb(126,160,146)" transform="translate(0,0)"></path>
<path d="M 1315.57 1412.63 L 1316.25 1413.97 C 1314.75 1415.28 1301.81 1424.71 1299.42 1426.33 L 1298.65 1424.52 C 1302.79 1420.79 1310.75 1415.39 1315.57 1412.63 z" fill="rgb(158,193,182)" transform="translate(0,0)"></path>
<path d="M 1478.55 1057.81 C 1478.5 1057.75 1478.45 1057.69 1478.4 1057.62 C 1478.14 1057.33 1477.87 1057.04 1477.61 1056.75 C 1476.33 1056.63 1475.91 1058.39 1474.71 1058.07 C 1473.68 1056.46 1475.03 1046.65 1475.71 1046.26 C 1477.02 1046.38 1477.4 1050.95 1478.58 1053.08 C 1479.13 1055.35 1479.54 1055.85 1478.55 1057.81 z" fill="rgb(54,102,89)" transform="translate(0,0)"></path>
<path d="M 1421.16 1089.38 C 1425.55 1092.66 1422.27 1103.19 1421.46 1108.15 C 1418.81 1105.4 1420.92 1093.7 1421.16 1089.38 z" fill="rgb(87,138,117)" transform="translate(0,0)"></path>
<path d="M 1140.24 1567.15 C 1145.9 1570.31 1125.35 1573.11 1124.04 1573.36 C 1123.51 1573.09 1122.98 1572.82 1122.45 1572.55 L 1122.43 1572.44 C 1123.42 1571.59 1138.29 1567.66 1140.24 1567.15 z" fill="rgb(54,130,93)" transform="translate(0,0)"></path>
<path d="M 1138.38 1553.05 C 1144.34 1553.04 1142.8 1555.24 1138.51 1555.97 C 1135.08 1556.55 1131.68 1557.1 1128.23 1557.61 C 1127.4 1557.69 1125.65 1558.1 1124.92 1557.44 C 1125.87 1555.97 1136.08 1553.57 1138.38 1553.05 z" fill="rgb(54,130,93)" transform="translate(0,0)"></path>
<path d="M 1549.54 930.322 C 1555.9 935.202 1553.64 941.914 1552.45 949.256 C 1550.93 947.995 1550.54 947.301 1551.02 945.025 C 1552.18 939.601 1551.19 935.519 1549.54 930.322 z" fill="rgb(126,160,146)" transform="translate(0,0)"></path>
<path d="M 1176.89 480.794 C 1183.04 481.784 1188.46 482.389 1191.6 487.975 C 1184.94 487.772 1183.52 484.81 1176.89 480.794 z" fill="rgb(41,117,89)" transform="translate(0,0)"></path>
<path d="M 1023.22 1534.6 C 1024.71 1533.82 1036.85 1532.17 1038.22 1532.69 C 1039.07 1533.87 1033.42 1534.81 1032.95 1534.9 C 1030.48 1535.39 1028.35 1536.16 1025.92 1536.65 C 1024.72 1535.26 1024.83 1535.3 1023.22 1534.6 z" fill="rgb(185,195,191)" transform="translate(0,0)"></path>
<path d="M 1160.19 1520.43 C 1162.02 1519.73 1176.48 1516.84 1178.75 1516.42 C 1175.48 1517.8 1168.27 1521.51 1165.16 1522.27 C 1162.99 1520.83 1162.71 1520.49 1160.19 1520.43 z" fill="rgb(87,138,117)" transform="translate(0,0)"></path>
<path d="M 1428.97 1025.49 C 1433.3 1028.86 1431.52 1036.56 1430.01 1041.07 C 1428.42 1040.95 1429.34 1028.76 1428.97 1025.49 z" fill="rgb(110,125,123)" transform="translate(0,0)"></path>
<path d="M 1364.2 1440.76 C 1373.16 1440.42 1360.07 1446.61 1358.38 1447.56 C 1357.82 1447.7 1356.14 1448.35 1355.79 1447.49 C 1356.25 1446.09 1362.83 1441.73 1364.2 1440.76 z" fill="rgb(54,130,93)" transform="translate(0,0)"></path>
<path d="M 493.334 917.788 C 493.743 919.15 494.073 920.359 494.435 921.728 C 495.117 925.472 495.061 925.674 496.615 929.083 C 496.435 931.246 495.971 932.899 495.447 935.02 C 494.144 930.602 492.584 922.402 493.334 917.788 z" fill="rgb(185,195,191)" transform="translate(0,0)"></path>
<path d="M 586.583 1353.71 C 590.833 1356.62 594.689 1363.92 597.073 1368.51 C 592.051 1365.33 589.26 1359.1 586.583 1353.71 z" fill="rgb(126,160,146)" transform="translate(0,0)"></path>
<path d="M 1434.11 1364.64 L 1437.19 1365.97 C 1433 1369.17 1431.98 1369.63 1429.08 1373.99 L 1427.48 1373.41 C 1429.41 1369.83 1430.77 1367.08 1434.11 1364.64 z" fill="rgb(41,117,89)" transform="translate(0,0)"></path>
<path d="M 1344.86 1458.6 C 1348.45 1460.39 1341.53 1464.84 1339.13 1467.35 C 1333.59 1470.03 1343.14 1459.89 1344.86 1458.6 z" fill="rgb(54,130,93)" transform="translate(0,0)"></path>
<path d="M 1176.95 1555.92 C 1186.43 1556.53 1173.59 1559.8 1171.33 1560.59 C 1170.52 1560.67 1168.95 1561.03 1168.33 1560.42 C 1168.27 1560.37 1168.19 1560.19 1168.24 1560.09 C 1169.05 1558.43 1176.35 1556.14 1176.95 1555.92 z" fill="rgb(54,130,93)" transform="translate(0,0)"></path>
<path d="M 1372.85 1443.95 C 1374.94 1445.9 1366.12 1453.13 1364.13 1455.09 C 1361.85 1452.58 1370.87 1445.68 1372.85 1443.95 z" fill="rgb(54,102,89)" transform="translate(0,0)"></path>
<path d="M 1256.96 1424.4 C 1261.81 1421.89 1263.08 1421.45 1268.12 1420.37 L 1270.09 1419.93 C 1265.86 1422.43 1261.87 1424.6 1257.64 1427 L 1256.96 1424.4 z" fill="rgb(41,117,89)" transform="translate(0,0)"></path>
<path d="M 529.862 1071.48 C 533.767 1074.12 533.128 1076.32 533.842 1081.05 C 528.585 1080.12 529.897 1076.29 529.862 1071.48 z" fill="rgb(54,130,93)" transform="translate(0,0)"></path>
<path d="M 1183.84 639.522 C 1186.4 641.362 1189.26 642.73 1191.91 644.449 C 1187.29 643.52 1182.42 642.328 1177.82 641.512 C 1180.38 640.829 1181.34 640.569 1183.84 639.522 z" fill="rgb(41,117,89)" transform="translate(0,0)"></path>
<path d="M 525.45 1200.87 C 528.911 1204.11 529.956 1208.63 530.767 1213.03 C 526.418 1210.57 526.224 1205.48 525.45 1200.87 z" fill="rgb(54,130,93)" transform="translate(0,0)"></path>
<path d="M 1203.36 1506.89 C 1209.72 1507.77 1196.92 1512.71 1196.64 1512.82 C 1192.13 1511.84 1202.26 1507.49 1203.36 1506.89 z" fill="rgb(41,117,89)" transform="translate(0,0)"></path>
<path d="M 1468.71 1081.49 C 1469.64 1077.38 1472.31 1072.59 1474.23 1068.83 L 1471.82 1079.49 C 1471.49 1080.93 1471.09 1082.12 1470.66 1083.54 L 1470.32 1084.67 C 1469.8 1083.6 1469.26 1082.54 1468.71 1081.49 z" fill="rgb(41,117,89)" transform="translate(0,0)"></path>
<path d="M 1307.98 1408.64 C 1312.15 1402.65 1323 1399.08 1308.31 1410.3 L 1307.98 1408.64 z" fill="rgb(185,195,191)" transform="translate(0,0)"></path>
<path d="M 575.616 1334.64 C 579.756 1337.06 581.307 1340.98 583.511 1345.3 C 578.394 1342.09 577.562 1340.16 575.616 1334.64 z" fill="rgb(41,117,89)" transform="translate(0,0)"></path>
<path d="M 489.68 1009.56 C 493.813 1012.48 493.234 1012.76 492.532 1017.66 C 488.221 1018.11 489.687 1013.42 489.68 1009.56 z" fill="rgb(54,130,93)" transform="translate(0,0)"></path>
<path d="M 1554.66 986.455 C 1557.57 990.894 1558.01 994.944 1557.9 1000.24 C 1555.04 996.185 1554.99 991.307 1554.66 986.455 z" fill="rgb(87,138,117)" transform="translate(0,0)"></path>
<path d="M 1427.58 1054.42 C 1430.99 1057.49 1429.4 1060.68 1428 1064.93 C 1425.68 1065.19 1427.41 1055.57 1427.58 1054.42 z" fill="rgb(54,102,89)" transform="translate(0,0)"></path>
<path d="M 1429.45 1008.72 C 1432.29 1011.15 1430.89 1015.89 1430.68 1019.59 C 1427.12 1016.96 1428.91 1013.21 1429.45 1008.72 z" fill="rgb(110,125,123)" transform="translate(0,0)"></path>
<path d="M 542.19 795.699 C 544.991 797.516 540.931 802.558 539.599 805.134 C 537.276 803.848 540.332 799.127 541.292 797.393 L 542.19 795.699 z" fill="rgb(87,138,117)" transform="translate(0,0)"></path>
<path d="M 848.194 1503.07 C 846.144 1502.42 844.074 1501.87 842.041 1501.18 L 842.606 1501.44 C 842.064 1501.23 841.052 1500.89 840.722 1500.43 L 840.754 1500.32 C 842.221 1499.56 848.896 1500.85 850.856 1501.21 L 848.194 1503.07 z" fill="rgb(87,138,117)" transform="translate(0,0)"></path>
<path d="M 1244.54 1460.47 C 1243.91 1460.75 1237.29 1463.87 1236.74 1462.41 C 1237.45 1461.17 1242.5 1459.5 1243.93 1458.96 L 1244.54 1460.47 z" fill="rgb(158,193,182)" transform="translate(0,0)"></path>
<path d="M 1431 828.564 C 1433.98 830.165 1434.75 830.308 1434.32 833.641 C 1431.82 834.002 1431.93 831.122 1431 828.564 z" fill="rgb(41,117,89)" transform="translate(0,0)"></path>
<path d="M 1300.88 1466.1 C 1307.28 1461.1 1308.82 1462.43 1302.08 1467.99 L 1300.88 1466.1 z" fill="rgb(126,160,146)" transform="translate(0,0)"></path>
<path d="M 1480.18 990.196 L 1483.44 989.082 C 1482.87 994.558 1482 998.166 1480.18 990.196 z" fill="rgb(41,117,89)" transform="translate(0,0)"></path>
<path d="M 1060.71 1531.24 C 1059.35 1530.82 1057.6 1530.4 1056.48 1529.51 C 1057.49 1528.77 1063.76 1528.97 1065.12 1528.97 L 1060.71 1531.24 z" fill="rgb(87,138,117)" transform="translate(0,0)"></path>
<path d="M 825.823 1502.22 C 824.936 1501.81 820.901 1500.42 820.791 1499.37 C 822.071 1498.27 825.158 1499.97 826.456 1500.52 L 825.823 1502.22 z" fill="rgb(126,160,146)" transform="translate(0,0)"></path>
<path d="M 660.304 1440.64 C 661.672 1441.81 662.251 1442.36 663.491 1443.65 L 662.602 1445.12 C 660.435 1443.48 660.657 1443.73 658.964 1441.64 L 660.304 1440.64 z" fill="rgb(185,195,191)" transform="translate(0,0)"></path>
<path d="M 1427.48 1373.41 L 1429.08 1373.99 C 1426.48 1380.97 1425.17 1379.59 1427.48 1373.41 z" fill="rgb(126,160,146)" transform="translate(0,0)"></path>
<path d="M 1287.03 1514.41 C 1287.95 1514.13 1290.64 1513.08 1291.35 1514.22 C 1291.21 1514.96 1289.17 1516.1 1288.6 1516.51 L 1287.03 1514.41 z" fill="rgb(126,160,146)" transform="translate(0,0)"></path>
<path d="M 831.17 515.558 C 830.073 515.878 828.29 516.659 827.223 515.848 C 827.161 514.735 828.275 514.423 829.216 513.852 L 831.17 515.558 z" fill="rgb(87,138,117)" transform="translate(0,0)"></path>
<path d="M 1473.32 1063.46 C 1473.74 1063.34 1474.3 1063.03 1474.74 1063.2 C 1474.53 1063.82 1474.22 1064.28 1473.85 1064.87 C 1473.56 1065.15 1473.26 1065.43 1472.96 1065.71 C 1473.07 1064.86 1473.15 1064.36 1473.32 1063.46 z" fill="rgb(110,125,123)" transform="translate(0,0)"></path>
<path d="M 529.581 1002.75 C 529.679 1003.54 530.258 1005.52 529.119 1005.91 C 528.086 1005.34 528.276 1003.86 528.17 1002.88 L 529.581 1002.75 z" fill="rgb(87,138,117)" transform="translate(0,0)"></path>
<path d="M 1484.67 1006.27 C 1484.85 1006.26 1485.02 1006.25 1485.2 1006.24 C 1485.43 1006.52 1485.3 1006.3 1485.5 1007.08 C 1484.92 1007.05 1485.1 1007.11 1484.86 1006.98 C 1484.7 1006.71 1484.78 1006.91 1484.67 1006.27 z" fill="rgb(54,130,93)" transform="translate(0,0)"></path>
<metadata><recraft-signature>{"signed_by": "recraft", "signature_b64": "GX/3uRLoWkWQwRYhMuTvJHkSgmdDrEJ9dCrxZEKEnXjsOKy01OTqS4OFbUpFNgKS23759kSNOqrQcFsOGzbkAg==", "signing_algo": "Ed25519", "generation_timestamp": 1784070659, "identifier": "ba3d9fc9-201b-47c8-ac2f-c98bb5382276"}</recraft-signature></metadata></svg>